<mxfile host="Electron" modified="2023-09-24T22:14:05.406Z" agent="Mozilla/5.0 (Macintosh; Intel Mac OS X 10_15_7) AppleWebKit/537.36 (KHTML, like Gecko) draw.io/21.7.5 Chrome/114.0.5735.289 Electron/25.8.1 Safari/537.36" etag="lc5ui7M1IN5smr98ckn_" version="21.7.5" type="device">
  <diagram id="C5RBs43oDa-KdzZeNtuy" name="Page-1">
    <mxGraphModel dx="1480" dy="509" grid="1" gridSize="10" guides="1" tooltips="1" connect="1" arrows="1" fold="1" page="1" pageScale="1" pageWidth="1169" pageHeight="827" math="0" shadow="0">
      <root>
        <mxCell id="WIyWlLk6GJQsqaUBKTNV-0" />
        <mxCell id="WIyWlLk6GJQsqaUBKTNV-1" parent="WIyWlLk6GJQsqaUBKTNV-0" />
        <mxCell id="O6CtaRYET_vfFni-FHMC-0" value="Medicamento" style="swimlane;fontStyle=1;align=center;verticalAlign=top;childLayout=stackLayout;horizontal=1;startSize=26;horizontalStack=0;resizeParent=1;resizeParentMax=0;resizeLast=0;collapsible=1;marginBottom=0;whiteSpace=wrap;html=1;" parent="WIyWlLk6GJQsqaUBKTNV-1" vertex="1">
          <mxGeometry x="45" y="1350" width="190" height="216" as="geometry" />
        </mxCell>
        <mxCell id="ZJPSMoCEX5RP2kxzUlpS-58" value="- nome: String" style="text;strokeColor=none;fillColor=none;align=left;verticalAlign=top;spacingLeft=4;spacingRight=4;overflow=hidden;rotatable=0;points=[[0,0.5],[1,0.5]];portConstraint=eastwest;whiteSpace=wrap;html=1;" vertex="1" parent="O6CtaRYET_vfFni-FHMC-0">
          <mxGeometry y="26" width="190" height="26" as="geometry" />
        </mxCell>
        <mxCell id="ZJPSMoCEX5RP2kxzUlpS-59" value="- principioAtivo: String" style="text;strokeColor=none;fillColor=none;align=left;verticalAlign=top;spacingLeft=4;spacingRight=4;overflow=hidden;rotatable=0;points=[[0,0.5],[1,0.5]];portConstraint=eastwest;whiteSpace=wrap;html=1;" vertex="1" parent="O6CtaRYET_vfFni-FHMC-0">
          <mxGeometry y="52" width="190" height="26" as="geometry" />
        </mxCell>
        <mxCell id="ZJPSMoCEX5RP2kxzUlpS-60" value="- classificação: String" style="text;strokeColor=none;fillColor=none;align=left;verticalAlign=top;spacingLeft=4;spacingRight=4;overflow=hidden;rotatable=0;points=[[0,0.5],[1,0.5]];portConstraint=eastwest;whiteSpace=wrap;html=1;" vertex="1" parent="O6CtaRYET_vfFni-FHMC-0">
          <mxGeometry y="78" width="190" height="26" as="geometry" />
        </mxCell>
        <mxCell id="ZJPSMoCEX5RP2kxzUlpS-61" value="- fabricante: String" style="text;strokeColor=none;fillColor=none;align=left;verticalAlign=top;spacingLeft=4;spacingRight=4;overflow=hidden;rotatable=0;points=[[0,0.5],[1,0.5]];portConstraint=eastwest;whiteSpace=wrap;html=1;" vertex="1" parent="O6CtaRYET_vfFni-FHMC-0">
          <mxGeometry y="104" width="190" height="26" as="geometry" />
        </mxCell>
        <mxCell id="O6CtaRYET_vfFni-FHMC-1" value="- formaFarmaceutica: String" style="text;strokeColor=none;fillColor=none;align=left;verticalAlign=top;spacingLeft=4;spacingRight=4;overflow=hidden;rotatable=0;points=[[0,0.5],[1,0.5]];portConstraint=eastwest;whiteSpace=wrap;html=1;" parent="O6CtaRYET_vfFni-FHMC-0" vertex="1">
          <mxGeometry y="130" width="190" height="26" as="geometry" />
        </mxCell>
        <mxCell id="O6CtaRYET_vfFni-FHMC-2" value="" style="line;strokeWidth=1;fillColor=none;align=left;verticalAlign=middle;spacingTop=-1;spacingLeft=3;spacingRight=3;rotatable=0;labelPosition=right;points=[];portConstraint=eastwest;strokeColor=inherit;" parent="O6CtaRYET_vfFni-FHMC-0" vertex="1">
          <mxGeometry y="156" width="190" height="8" as="geometry" />
        </mxCell>
        <mxCell id="ZJPSMoCEX5RP2kxzUlpS-63" value="+ cadastrarMedicamento(): void" style="text;strokeColor=none;fillColor=none;align=left;verticalAlign=top;spacingLeft=4;spacingRight=4;overflow=hidden;rotatable=0;points=[[0,0.5],[1,0.5]];portConstraint=eastwest;whiteSpace=wrap;html=1;" vertex="1" parent="O6CtaRYET_vfFni-FHMC-0">
          <mxGeometry y="164" width="190" height="26" as="geometry" />
        </mxCell>
        <mxCell id="O6CtaRYET_vfFni-FHMC-3" value="+ atualizarMedicamento(): void" style="text;strokeColor=none;fillColor=none;align=left;verticalAlign=top;spacingLeft=4;spacingRight=4;overflow=hidden;rotatable=0;points=[[0,0.5],[1,0.5]];portConstraint=eastwest;whiteSpace=wrap;html=1;" parent="O6CtaRYET_vfFni-FHMC-0" vertex="1">
          <mxGeometry y="190" width="190" height="26" as="geometry" />
        </mxCell>
        <mxCell id="O6CtaRYET_vfFni-FHMC-5" value="ClinicaLaboratório" style="swimlane;fontStyle=1;align=center;verticalAlign=top;childLayout=stackLayout;horizontal=1;startSize=26;horizontalStack=0;resizeParent=1;resizeParentMax=0;resizeLast=0;collapsible=1;marginBottom=0;whiteSpace=wrap;html=1;" parent="WIyWlLk6GJQsqaUBKTNV-1" vertex="1">
          <mxGeometry x="935" y="900" width="210" height="320" as="geometry" />
        </mxCell>
        <mxCell id="O6CtaRYET_vfFni-FHMC-6" value="- nome: String" style="text;strokeColor=none;fillColor=none;align=left;verticalAlign=top;spacingLeft=4;spacingRight=4;overflow=hidden;rotatable=0;points=[[0,0.5],[1,0.5]];portConstraint=eastwest;whiteSpace=wrap;html=1;" parent="O6CtaRYET_vfFni-FHMC-5" vertex="1">
          <mxGeometry y="26" width="210" height="26" as="geometry" />
        </mxCell>
        <mxCell id="O6CtaRYET_vfFni-FHMC-9" value="- localização: String" style="text;strokeColor=none;fillColor=none;align=left;verticalAlign=top;spacingLeft=4;spacingRight=4;overflow=hidden;rotatable=0;points=[[0,0.5],[1,0.5]];portConstraint=eastwest;whiteSpace=wrap;html=1;" parent="O6CtaRYET_vfFni-FHMC-5" vertex="1">
          <mxGeometry y="52" width="210" height="26" as="geometry" />
        </mxCell>
        <mxCell id="O6CtaRYET_vfFni-FHMC-10" value="- contato: String" style="text;strokeColor=none;fillColor=none;align=left;verticalAlign=top;spacingLeft=4;spacingRight=4;overflow=hidden;rotatable=0;points=[[0,0.5],[1,0.5]];portConstraint=eastwest;whiteSpace=wrap;html=1;" parent="O6CtaRYET_vfFni-FHMC-5" vertex="1">
          <mxGeometry y="78" width="210" height="26" as="geometry" />
        </mxCell>
        <mxCell id="O6CtaRYET_vfFni-FHMC-11" value="- telefone: String" style="text;strokeColor=none;fillColor=none;align=left;verticalAlign=top;spacingLeft=4;spacingRight=4;overflow=hidden;rotatable=0;points=[[0,0.5],[1,0.5]];portConstraint=eastwest;whiteSpace=wrap;html=1;" parent="O6CtaRYET_vfFni-FHMC-5" vertex="1">
          <mxGeometry y="104" width="210" height="26" as="geometry" />
        </mxCell>
        <mxCell id="O6CtaRYET_vfFni-FHMC-12" value="- celular: String" style="text;strokeColor=none;fillColor=none;align=left;verticalAlign=top;spacingLeft=4;spacingRight=4;overflow=hidden;rotatable=0;points=[[0,0.5],[1,0.5]];portConstraint=eastwest;whiteSpace=wrap;html=1;" parent="O6CtaRYET_vfFni-FHMC-5" vertex="1">
          <mxGeometry y="130" width="210" height="26" as="geometry" />
        </mxCell>
        <mxCell id="O6CtaRYET_vfFni-FHMC-13" value="- url: String" style="text;strokeColor=none;fillColor=none;align=left;verticalAlign=top;spacingLeft=4;spacingRight=4;overflow=hidden;rotatable=0;points=[[0,0.5],[1,0.5]];portConstraint=eastwest;whiteSpace=wrap;html=1;" parent="O6CtaRYET_vfFni-FHMC-5" vertex="1">
          <mxGeometry y="156" width="210" height="26" as="geometry" />
        </mxCell>
        <mxCell id="O6CtaRYET_vfFni-FHMC-14" value="- email: String" style="text;strokeColor=none;fillColor=none;align=left;verticalAlign=top;spacingLeft=4;spacingRight=4;overflow=hidden;rotatable=0;points=[[0,0.5],[1,0.5]];portConstraint=eastwest;whiteSpace=wrap;html=1;" parent="O6CtaRYET_vfFni-FHMC-5" vertex="1">
          <mxGeometry y="182" width="210" height="26" as="geometry" />
        </mxCell>
        <mxCell id="O6CtaRYET_vfFni-FHMC-15" value="- chavePix: String" style="text;strokeColor=none;fillColor=none;align=left;verticalAlign=top;spacingLeft=4;spacingRight=4;overflow=hidden;rotatable=0;points=[[0,0.5],[1,0.5]];portConstraint=eastwest;whiteSpace=wrap;html=1;" parent="O6CtaRYET_vfFni-FHMC-5" vertex="1">
          <mxGeometry y="208" width="210" height="26" as="geometry" />
        </mxCell>
        <mxCell id="O6CtaRYET_vfFni-FHMC-16" value="- anotacoes: String" style="text;strokeColor=none;fillColor=none;align=left;verticalAlign=top;spacingLeft=4;spacingRight=4;overflow=hidden;rotatable=0;points=[[0,0.5],[1,0.5]];portConstraint=eastwest;whiteSpace=wrap;html=1;" parent="O6CtaRYET_vfFni-FHMC-5" vertex="1">
          <mxGeometry y="234" width="210" height="26" as="geometry" />
        </mxCell>
        <mxCell id="O6CtaRYET_vfFni-FHMC-7" value="" style="line;strokeWidth=1;fillColor=none;align=left;verticalAlign=middle;spacingTop=-1;spacingLeft=3;spacingRight=3;rotatable=0;labelPosition=right;points=[];portConstraint=eastwest;strokeColor=inherit;" parent="O6CtaRYET_vfFni-FHMC-5" vertex="1">
          <mxGeometry y="260" width="210" height="8" as="geometry" />
        </mxCell>
        <mxCell id="ZJPSMoCEX5RP2kxzUlpS-48" value="+ cadastrarClinicaLaboratório(): void" style="text;strokeColor=none;fillColor=none;align=left;verticalAlign=top;spacingLeft=4;spacingRight=4;overflow=hidden;rotatable=0;points=[[0,0.5],[1,0.5]];portConstraint=eastwest;whiteSpace=wrap;html=1;" vertex="1" parent="O6CtaRYET_vfFni-FHMC-5">
          <mxGeometry y="268" width="210" height="26" as="geometry" />
        </mxCell>
        <mxCell id="O6CtaRYET_vfFni-FHMC-8" value="+ atualizarClinicaLaboratório(): void" style="text;strokeColor=none;fillColor=none;align=left;verticalAlign=top;spacingLeft=4;spacingRight=4;overflow=hidden;rotatable=0;points=[[0,0.5],[1,0.5]];portConstraint=eastwest;whiteSpace=wrap;html=1;" parent="O6CtaRYET_vfFni-FHMC-5" vertex="1">
          <mxGeometry y="294" width="210" height="26" as="geometry" />
        </mxCell>
        <mxCell id="O6CtaRYET_vfFni-FHMC-17" value="Agenda" style="swimlane;fontStyle=1;align=center;verticalAlign=top;childLayout=stackLayout;horizontal=1;startSize=26;horizontalStack=0;resizeParent=1;resizeParentMax=0;resizeLast=0;collapsible=1;marginBottom=0;whiteSpace=wrap;html=1;" parent="WIyWlLk6GJQsqaUBKTNV-1" vertex="1">
          <mxGeometry x="505" y="940" width="160" height="164" as="geometry" />
        </mxCell>
        <mxCell id="O6CtaRYET_vfFni-FHMC-48" value="- tipo: String" style="text;strokeColor=none;fillColor=none;align=left;verticalAlign=top;spacingLeft=4;spacingRight=4;overflow=hidden;rotatable=0;points=[[0,0.5],[1,0.5]];portConstraint=eastwest;whiteSpace=wrap;html=1;" parent="O6CtaRYET_vfFni-FHMC-17" vertex="1">
          <mxGeometry y="26" width="160" height="26" as="geometry" />
        </mxCell>
        <mxCell id="O6CtaRYET_vfFni-FHMC-49" value="- status: String" style="text;strokeColor=none;fillColor=none;align=left;verticalAlign=top;spacingLeft=4;spacingRight=4;overflow=hidden;rotatable=0;points=[[0,0.5],[1,0.5]];portConstraint=eastwest;whiteSpace=wrap;html=1;" parent="O6CtaRYET_vfFni-FHMC-17" vertex="1">
          <mxGeometry y="52" width="160" height="26" as="geometry" />
        </mxCell>
        <mxCell id="zVyxqiEROXHcgOC5rcdq-9" value="- dataHora: Date" style="text;strokeColor=none;fillColor=none;align=left;verticalAlign=top;spacingLeft=4;spacingRight=4;overflow=hidden;rotatable=0;points=[[0,0.5],[1,0.5]];portConstraint=eastwest;whiteSpace=wrap;html=1;" parent="O6CtaRYET_vfFni-FHMC-17" vertex="1">
          <mxGeometry y="78" width="160" height="26" as="geometry" />
        </mxCell>
        <mxCell id="ZJPSMoCEX5RP2kxzUlpS-11" value="- Anotações: String" style="text;strokeColor=none;fillColor=none;align=left;verticalAlign=top;spacingLeft=4;spacingRight=4;overflow=hidden;rotatable=0;points=[[0,0.5],[1,0.5]];portConstraint=eastwest;whiteSpace=wrap;html=1;" vertex="1" parent="O6CtaRYET_vfFni-FHMC-17">
          <mxGeometry y="104" width="160" height="26" as="geometry" />
        </mxCell>
        <mxCell id="O6CtaRYET_vfFni-FHMC-19" value="" style="line;strokeWidth=1;fillColor=none;align=left;verticalAlign=middle;spacingTop=-1;spacingLeft=3;spacingRight=3;rotatable=0;labelPosition=right;points=[];portConstraint=eastwest;strokeColor=inherit;" parent="O6CtaRYET_vfFni-FHMC-17" vertex="1">
          <mxGeometry y="130" width="160" height="8" as="geometry" />
        </mxCell>
        <mxCell id="O6CtaRYET_vfFni-FHMC-20" value="+ alterarStatus(): void" style="text;strokeColor=none;fillColor=none;align=left;verticalAlign=top;spacingLeft=4;spacingRight=4;overflow=hidden;rotatable=0;points=[[0,0.5],[1,0.5]];portConstraint=eastwest;whiteSpace=wrap;html=1;" parent="O6CtaRYET_vfFni-FHMC-17" vertex="1">
          <mxGeometry y="138" width="160" height="26" as="geometry" />
        </mxCell>
        <mxCell id="O6CtaRYET_vfFni-FHMC-31" value="" style="endArrow=none;html=1;endSize=12;startArrow=none;startSize=14;startFill=0;edgeStyle=entityRelationEdgeStyle;rounded=0;strokeColor=default;endFill=0;entryX=0;entryY=0.5;entryDx=0;entryDy=0;exitX=1;exitY=0.5;exitDx=0;exitDy=0;elbow=vertical;" parent="WIyWlLk6GJQsqaUBKTNV-1" source="ZJPSMoCEX5RP2kxzUlpS-11" target="O6CtaRYET_vfFni-FHMC-12" edge="1">
          <mxGeometry relative="1" as="geometry">
            <mxPoint x="705" y="1139" as="sourcePoint" />
            <mxPoint x="915" y="1012.5" as="targetPoint" />
          </mxGeometry>
        </mxCell>
        <mxCell id="O6CtaRYET_vfFni-FHMC-32" value="0..*" style="edgeLabel;resizable=0;html=1;align=left;verticalAlign=top;" parent="O6CtaRYET_vfFni-FHMC-31" connectable="0" vertex="1">
          <mxGeometry x="-1" relative="1" as="geometry" />
        </mxCell>
        <mxCell id="O6CtaRYET_vfFni-FHMC-33" value="0..1" style="edgeLabel;resizable=0;html=1;align=right;verticalAlign=top;" parent="O6CtaRYET_vfFni-FHMC-31" connectable="0" vertex="1">
          <mxGeometry x="1" relative="1" as="geometry" />
        </mxCell>
        <mxCell id="O6CtaRYET_vfFni-FHMC-35" value="Médico" style="swimlane;fontStyle=1;align=center;verticalAlign=top;childLayout=stackLayout;horizontal=1;startSize=26;horizontalStack=0;resizeParent=1;resizeParentMax=0;resizeLast=0;collapsible=1;marginBottom=0;whiteSpace=wrap;html=1;" parent="WIyWlLk6GJQsqaUBKTNV-1" vertex="1">
          <mxGeometry x="975" y="1250" width="180" height="268" as="geometry" />
        </mxCell>
        <mxCell id="O6CtaRYET_vfFni-FHMC-36" value="- nome: String" style="text;strokeColor=none;fillColor=none;align=left;verticalAlign=top;spacingLeft=4;spacingRight=4;overflow=hidden;rotatable=0;points=[[0,0.5],[1,0.5]];portConstraint=eastwest;whiteSpace=wrap;html=1;" parent="O6CtaRYET_vfFni-FHMC-35" vertex="1">
          <mxGeometry y="26" width="180" height="26" as="geometry" />
        </mxCell>
        <mxCell id="O6CtaRYET_vfFni-FHMC-42" value="- valorConsulta: Double" style="text;strokeColor=none;fillColor=none;align=left;verticalAlign=top;spacingLeft=4;spacingRight=4;overflow=hidden;rotatable=0;points=[[0,0.5],[1,0.5]];portConstraint=eastwest;whiteSpace=wrap;html=1;" parent="O6CtaRYET_vfFni-FHMC-35" vertex="1">
          <mxGeometry y="52" width="180" height="26" as="geometry" />
        </mxCell>
        <mxCell id="O6CtaRYET_vfFni-FHMC-43" value="- especialidades: String" style="text;strokeColor=none;fillColor=none;align=left;verticalAlign=top;spacingLeft=4;spacingRight=4;overflow=hidden;rotatable=0;points=[[0,0.5],[1,0.5]];portConstraint=eastwest;whiteSpace=wrap;html=1;" parent="O6CtaRYET_vfFni-FHMC-35" vertex="1">
          <mxGeometry y="78" width="180" height="26" as="geometry" />
        </mxCell>
        <mxCell id="O6CtaRYET_vfFni-FHMC-44" value="- crm: String" style="text;strokeColor=none;fillColor=none;align=left;verticalAlign=top;spacingLeft=4;spacingRight=4;overflow=hidden;rotatable=0;points=[[0,0.5],[1,0.5]];portConstraint=eastwest;whiteSpace=wrap;html=1;" parent="O6CtaRYET_vfFni-FHMC-35" vertex="1">
          <mxGeometry y="104" width="180" height="26" as="geometry" />
        </mxCell>
        <mxCell id="O6CtaRYET_vfFni-FHMC-45" value="- celular: String" style="text;strokeColor=none;fillColor=none;align=left;verticalAlign=top;spacingLeft=4;spacingRight=4;overflow=hidden;rotatable=0;points=[[0,0.5],[1,0.5]];portConstraint=eastwest;whiteSpace=wrap;html=1;" parent="O6CtaRYET_vfFni-FHMC-35" vertex="1">
          <mxGeometry y="130" width="180" height="26" as="geometry" />
        </mxCell>
        <mxCell id="O6CtaRYET_vfFni-FHMC-46" value="- email: String" style="text;strokeColor=none;fillColor=none;align=left;verticalAlign=top;spacingLeft=4;spacingRight=4;overflow=hidden;rotatable=0;points=[[0,0.5],[1,0.5]];portConstraint=eastwest;whiteSpace=wrap;html=1;" parent="O6CtaRYET_vfFni-FHMC-35" vertex="1">
          <mxGeometry y="156" width="180" height="26" as="geometry" />
        </mxCell>
        <mxCell id="O6CtaRYET_vfFni-FHMC-47" value="- anotações: String" style="text;strokeColor=none;fillColor=none;align=left;verticalAlign=top;spacingLeft=4;spacingRight=4;overflow=hidden;rotatable=0;points=[[0,0.5],[1,0.5]];portConstraint=eastwest;whiteSpace=wrap;html=1;" parent="O6CtaRYET_vfFni-FHMC-35" vertex="1">
          <mxGeometry y="182" width="180" height="26" as="geometry" />
        </mxCell>
        <mxCell id="O6CtaRYET_vfFni-FHMC-37" value="" style="line;strokeWidth=1;fillColor=none;align=left;verticalAlign=middle;spacingTop=-1;spacingLeft=3;spacingRight=3;rotatable=0;labelPosition=right;points=[];portConstraint=eastwest;strokeColor=inherit;" parent="O6CtaRYET_vfFni-FHMC-35" vertex="1">
          <mxGeometry y="208" width="180" height="8" as="geometry" />
        </mxCell>
        <mxCell id="ZJPSMoCEX5RP2kxzUlpS-46" value="+ cadastrarMédico(): type" style="text;strokeColor=none;fillColor=none;align=left;verticalAlign=top;spacingLeft=4;spacingRight=4;overflow=hidden;rotatable=0;points=[[0,0.5],[1,0.5]];portConstraint=eastwest;whiteSpace=wrap;html=1;" vertex="1" parent="O6CtaRYET_vfFni-FHMC-35">
          <mxGeometry y="216" width="180" height="26" as="geometry" />
        </mxCell>
        <mxCell id="ZJPSMoCEX5RP2kxzUlpS-47" value="+ atualizarMédico(): type" style="text;strokeColor=none;fillColor=none;align=left;verticalAlign=top;spacingLeft=4;spacingRight=4;overflow=hidden;rotatable=0;points=[[0,0.5],[1,0.5]];portConstraint=eastwest;whiteSpace=wrap;html=1;" vertex="1" parent="O6CtaRYET_vfFni-FHMC-35">
          <mxGeometry y="242" width="180" height="26" as="geometry" />
        </mxCell>
        <mxCell id="O6CtaRYET_vfFni-FHMC-39" value="" style="endArrow=none;html=1;endSize=12;startArrow=none;startSize=14;startFill=0;edgeStyle=entityRelationEdgeStyle;rounded=0;strokeColor=default;endFill=0;entryX=-0.025;entryY=0.163;entryDx=0;entryDy=0;entryPerimeter=0;exitX=1;exitY=0.5;exitDx=0;exitDy=0;elbow=vertical;" parent="WIyWlLk6GJQsqaUBKTNV-1" source="O6CtaRYET_vfFni-FHMC-20" target="O6CtaRYET_vfFni-FHMC-35" edge="1">
          <mxGeometry relative="1" as="geometry">
            <mxPoint x="715" y="1019" as="sourcePoint" />
            <mxPoint x="975" y="983" as="targetPoint" />
          </mxGeometry>
        </mxCell>
        <mxCell id="O6CtaRYET_vfFni-FHMC-40" value="0..*" style="edgeLabel;resizable=0;html=1;align=left;verticalAlign=top;" parent="O6CtaRYET_vfFni-FHMC-39" connectable="0" vertex="1">
          <mxGeometry x="-1" relative="1" as="geometry" />
        </mxCell>
        <mxCell id="O6CtaRYET_vfFni-FHMC-41" value="1" style="edgeLabel;resizable=0;html=1;align=right;verticalAlign=top;" parent="O6CtaRYET_vfFni-FHMC-39" connectable="0" vertex="1">
          <mxGeometry x="1" relative="1" as="geometry" />
        </mxCell>
        <mxCell id="zVyxqiEROXHcgOC5rcdq-0" value="Usuário" style="swimlane;fontStyle=1;align=center;verticalAlign=top;childLayout=stackLayout;horizontal=1;startSize=26;horizontalStack=0;resizeParent=1;resizeParentMax=0;resizeLast=0;collapsible=1;marginBottom=0;whiteSpace=wrap;html=1;" parent="WIyWlLk6GJQsqaUBKTNV-1" vertex="1">
          <mxGeometry x="265" y="890" width="170" height="190" as="geometry" />
        </mxCell>
        <mxCell id="zVyxqiEROXHcgOC5rcdq-1" value="- nome: String" style="text;strokeColor=none;fillColor=none;align=left;verticalAlign=top;spacingLeft=4;spacingRight=4;overflow=hidden;rotatable=0;points=[[0,0.5],[1,0.5]];portConstraint=eastwest;whiteSpace=wrap;html=1;" parent="zVyxqiEROXHcgOC5rcdq-0" vertex="1">
          <mxGeometry y="26" width="170" height="26" as="geometry" />
        </mxCell>
        <mxCell id="zVyxqiEROXHcgOC5rcdq-6" value="- userName: String" style="text;strokeColor=none;fillColor=none;align=left;verticalAlign=top;spacingLeft=4;spacingRight=4;overflow=hidden;rotatable=0;points=[[0,0.5],[1,0.5]];portConstraint=eastwest;whiteSpace=wrap;html=1;" parent="zVyxqiEROXHcgOC5rcdq-0" vertex="1">
          <mxGeometry y="52" width="170" height="26" as="geometry" />
        </mxCell>
        <mxCell id="zVyxqiEROXHcgOC5rcdq-7" value="- senha: String" style="text;strokeColor=none;fillColor=none;align=left;verticalAlign=top;spacingLeft=4;spacingRight=4;overflow=hidden;rotatable=0;points=[[0,0.5],[1,0.5]];portConstraint=eastwest;whiteSpace=wrap;html=1;" parent="zVyxqiEROXHcgOC5rcdq-0" vertex="1">
          <mxGeometry y="78" width="170" height="26" as="geometry" />
        </mxCell>
        <mxCell id="zVyxqiEROXHcgOC5rcdq-2" value="" style="line;strokeWidth=1;fillColor=none;align=left;verticalAlign=middle;spacingTop=-1;spacingLeft=3;spacingRight=3;rotatable=0;labelPosition=right;points=[];portConstraint=eastwest;strokeColor=inherit;" parent="zVyxqiEROXHcgOC5rcdq-0" vertex="1">
          <mxGeometry y="104" width="170" height="8" as="geometry" />
        </mxCell>
        <mxCell id="zVyxqiEROXHcgOC5rcdq-3" value="+ cadastrarUsuário(): void" style="text;strokeColor=none;fillColor=none;align=left;verticalAlign=top;spacingLeft=4;spacingRight=4;overflow=hidden;rotatable=0;points=[[0,0.5],[1,0.5]];portConstraint=eastwest;whiteSpace=wrap;html=1;" parent="zVyxqiEROXHcgOC5rcdq-0" vertex="1">
          <mxGeometry y="112" width="170" height="26" as="geometry" />
        </mxCell>
        <mxCell id="ZJPSMoCEX5RP2kxzUlpS-23" value="+ redefinirSenha(): void" style="text;strokeColor=none;fillColor=none;align=left;verticalAlign=top;spacingLeft=4;spacingRight=4;overflow=hidden;rotatable=0;points=[[0,0.5],[1,0.5]];portConstraint=eastwest;whiteSpace=wrap;html=1;" vertex="1" parent="zVyxqiEROXHcgOC5rcdq-0">
          <mxGeometry y="138" width="170" height="26" as="geometry" />
        </mxCell>
        <mxCell id="ZJPSMoCEX5RP2kxzUlpS-22" value="+ cadastrarNovaSenha(): void" style="text;strokeColor=none;fillColor=none;align=left;verticalAlign=top;spacingLeft=4;spacingRight=4;overflow=hidden;rotatable=0;points=[[0,0.5],[1,0.5]];portConstraint=eastwest;whiteSpace=wrap;html=1;" vertex="1" parent="zVyxqiEROXHcgOC5rcdq-0">
          <mxGeometry y="164" width="170" height="26" as="geometry" />
        </mxCell>
        <mxCell id="zVyxqiEROXHcgOC5rcdq-18" value="" style="rounded=0;orthogonalLoop=1;jettySize=auto;html=1;entryX=0.831;entryY=1.135;entryDx=0;entryDy=0;entryPerimeter=0;exitX=0.5;exitY=0;exitDx=0;exitDy=0;endArrow=block;endFill=0;" parent="WIyWlLk6GJQsqaUBKTNV-1" source="zVyxqiEROXHcgOC5rcdq-10" target="O6CtaRYET_vfFni-FHMC-20" edge="1">
          <mxGeometry relative="1" as="geometry">
            <mxPoint x="565" y="1250" as="sourcePoint" />
            <mxPoint x="695" y="1190" as="targetPoint" />
          </mxGeometry>
        </mxCell>
        <mxCell id="zVyxqiEROXHcgOC5rcdq-10" value="AgendaExamesProcedimentos" style="swimlane;fontStyle=1;align=center;verticalAlign=top;childLayout=stackLayout;horizontal=1;startSize=26;horizontalStack=0;resizeParent=1;resizeParentMax=0;resizeLast=0;collapsible=1;marginBottom=0;whiteSpace=wrap;html=1;" parent="WIyWlLk6GJQsqaUBKTNV-1" vertex="1">
          <mxGeometry x="625" y="1460" width="240" height="86" as="geometry" />
        </mxCell>
        <mxCell id="zVyxqiEROXHcgOC5rcdq-11" value="- CID: String" style="text;strokeColor=none;fillColor=none;align=left;verticalAlign=top;spacingLeft=4;spacingRight=4;overflow=hidden;rotatable=0;points=[[0,0.5],[1,0.5]];portConstraint=eastwest;whiteSpace=wrap;html=1;" parent="zVyxqiEROXHcgOC5rcdq-10" vertex="1">
          <mxGeometry y="26" width="240" height="26" as="geometry" />
        </mxCell>
        <mxCell id="zVyxqiEROXHcgOC5rcdq-16" value="" style="line;strokeWidth=1;fillColor=none;align=left;verticalAlign=middle;spacingTop=-1;spacingLeft=3;spacingRight=3;rotatable=0;labelPosition=right;points=[];portConstraint=eastwest;strokeColor=inherit;" parent="zVyxqiEROXHcgOC5rcdq-10" vertex="1">
          <mxGeometry y="52" width="240" height="8" as="geometry" />
        </mxCell>
        <mxCell id="zVyxqiEROXHcgOC5rcdq-17" value="+ agendarExameProcedimento(): void" style="text;strokeColor=none;fillColor=none;align=left;verticalAlign=top;spacingLeft=4;spacingRight=4;overflow=hidden;rotatable=0;points=[[0,0.5],[1,0.5]];portConstraint=eastwest;whiteSpace=wrap;html=1;" parent="zVyxqiEROXHcgOC5rcdq-10" vertex="1">
          <mxGeometry y="60" width="240" height="26" as="geometry" />
        </mxCell>
        <mxCell id="zVyxqiEROXHcgOC5rcdq-19" value="Prescrição" style="swimlane;fontStyle=1;align=center;verticalAlign=top;childLayout=stackLayout;horizontal=1;startSize=26;horizontalStack=0;resizeParent=1;resizeParentMax=0;resizeLast=0;collapsible=1;marginBottom=0;whiteSpace=wrap;html=1;" parent="WIyWlLk6GJQsqaUBKTNV-1" vertex="1">
          <mxGeometry x="45" y="956" width="170" height="294" as="geometry" />
        </mxCell>
        <mxCell id="zVyxqiEROXHcgOC5rcdq-20" value="- status: String" style="text;strokeColor=none;fillColor=none;align=left;verticalAlign=top;spacingLeft=4;spacingRight=4;overflow=hidden;rotatable=0;points=[[0,0.5],[1,0.5]];portConstraint=eastwest;whiteSpace=wrap;html=1;" parent="zVyxqiEROXHcgOC5rcdq-19" vertex="1">
          <mxGeometry y="26" width="170" height="26" as="geometry" />
        </mxCell>
        <mxCell id="ZJPSMoCEX5RP2kxzUlpS-32" value="- progresse: int" style="text;strokeColor=none;fillColor=none;align=left;verticalAlign=top;spacingLeft=4;spacingRight=4;overflow=hidden;rotatable=0;points=[[0,0.5],[1,0.5]];portConstraint=eastwest;whiteSpace=wrap;html=1;" vertex="1" parent="zVyxqiEROXHcgOC5rcdq-19">
          <mxGeometry y="52" width="170" height="26" as="geometry" />
        </mxCell>
        <mxCell id="ZJPSMoCEX5RP2kxzUlpS-33" value="- vezes: int" style="text;strokeColor=none;fillColor=none;align=left;verticalAlign=top;spacingLeft=4;spacingRight=4;overflow=hidden;rotatable=0;points=[[0,0.5],[1,0.5]];portConstraint=eastwest;whiteSpace=wrap;html=1;" vertex="1" parent="zVyxqiEROXHcgOC5rcdq-19">
          <mxGeometry y="78" width="170" height="26" as="geometry" />
        </mxCell>
        <mxCell id="ZJPSMoCEX5RP2kxzUlpS-34" value="- frequencia: String" style="text;strokeColor=none;fillColor=none;align=left;verticalAlign=top;spacingLeft=4;spacingRight=4;overflow=hidden;rotatable=0;points=[[0,0.5],[1,0.5]];portConstraint=eastwest;whiteSpace=wrap;html=1;" vertex="1" parent="zVyxqiEROXHcgOC5rcdq-19">
          <mxGeometry y="104" width="170" height="26" as="geometry" />
        </mxCell>
        <mxCell id="ZJPSMoCEX5RP2kxzUlpS-35" value="- qtde: double" style="text;strokeColor=none;fillColor=none;align=left;verticalAlign=top;spacingLeft=4;spacingRight=4;overflow=hidden;rotatable=0;points=[[0,0.5],[1,0.5]];portConstraint=eastwest;whiteSpace=wrap;html=1;" vertex="1" parent="zVyxqiEROXHcgOC5rcdq-19">
          <mxGeometry y="130" width="170" height="26" as="geometry" />
        </mxCell>
        <mxCell id="ZJPSMoCEX5RP2kxzUlpS-36" value="- duração: String" style="text;strokeColor=none;fillColor=none;align=left;verticalAlign=top;spacingLeft=4;spacingRight=4;overflow=hidden;rotatable=0;points=[[0,0.5],[1,0.5]];portConstraint=eastwest;whiteSpace=wrap;html=1;" vertex="1" parent="zVyxqiEROXHcgOC5rcdq-19">
          <mxGeometry y="156" width="170" height="26" as="geometry" />
        </mxCell>
        <mxCell id="zVyxqiEROXHcgOC5rcdq-24" value="- instruçõesAdicionais: String" style="text;strokeColor=none;fillColor=none;align=left;verticalAlign=top;spacingLeft=4;spacingRight=4;overflow=hidden;rotatable=0;points=[[0,0.5],[1,0.5]];portConstraint=eastwest;whiteSpace=wrap;html=1;" parent="zVyxqiEROXHcgOC5rcdq-19" vertex="1">
          <mxGeometry y="182" width="170" height="26" as="geometry" />
        </mxCell>
        <mxCell id="zVyxqiEROXHcgOC5rcdq-21" value="" style="line;strokeWidth=1;fillColor=none;align=left;verticalAlign=middle;spacingTop=-1;spacingLeft=3;spacingRight=3;rotatable=0;labelPosition=right;points=[];portConstraint=eastwest;strokeColor=inherit;" parent="zVyxqiEROXHcgOC5rcdq-19" vertex="1">
          <mxGeometry y="208" width="170" height="8" as="geometry" />
        </mxCell>
        <mxCell id="zVyxqiEROXHcgOC5rcdq-22" value="+ cadastrarPrescrição(): void" style="text;strokeColor=none;fillColor=none;align=left;verticalAlign=top;spacingLeft=4;spacingRight=4;overflow=hidden;rotatable=0;points=[[0,0.5],[1,0.5]];portConstraint=eastwest;whiteSpace=wrap;html=1;" parent="zVyxqiEROXHcgOC5rcdq-19" vertex="1">
          <mxGeometry y="216" width="170" height="26" as="geometry" />
        </mxCell>
        <mxCell id="ZJPSMoCEX5RP2kxzUlpS-37" value="+ atualizarPrescrição(): void" style="text;strokeColor=none;fillColor=none;align=left;verticalAlign=top;spacingLeft=4;spacingRight=4;overflow=hidden;rotatable=0;points=[[0,0.5],[1,0.5]];portConstraint=eastwest;whiteSpace=wrap;html=1;" vertex="1" parent="zVyxqiEROXHcgOC5rcdq-19">
          <mxGeometry y="242" width="170" height="26" as="geometry" />
        </mxCell>
        <mxCell id="ZJPSMoCEX5RP2kxzUlpS-38" value="+ consultarPrescrição(): void" style="text;strokeColor=none;fillColor=none;align=left;verticalAlign=top;spacingLeft=4;spacingRight=4;overflow=hidden;rotatable=0;points=[[0,0.5],[1,0.5]];portConstraint=eastwest;whiteSpace=wrap;html=1;" vertex="1" parent="zVyxqiEROXHcgOC5rcdq-19">
          <mxGeometry y="268" width="170" height="26" as="geometry" />
        </mxCell>
        <mxCell id="zVyxqiEROXHcgOC5rcdq-26" value="" style="endArrow=none;html=1;endSize=12;startArrow=none;startSize=14;startFill=0;edgeStyle=entityRelationEdgeStyle;rounded=0;strokeColor=default;endFill=0;entryX=1;entryY=0.112;entryDx=0;entryDy=0;entryPerimeter=0;exitX=0;exitY=0.053;exitDx=0;exitDy=0;exitPerimeter=0;" parent="WIyWlLk6GJQsqaUBKTNV-1" source="O6CtaRYET_vfFni-FHMC-17" target="zVyxqiEROXHcgOC5rcdq-0" edge="1">
          <mxGeometry relative="1" as="geometry">
            <mxPoint x="245" y="1070" as="sourcePoint" />
            <mxPoint x="405" y="1070" as="targetPoint" />
          </mxGeometry>
        </mxCell>
        <mxCell id="zVyxqiEROXHcgOC5rcdq-27" value="0..*" style="edgeLabel;resizable=0;html=1;align=left;verticalAlign=top;" parent="zVyxqiEROXHcgOC5rcdq-26" connectable="0" vertex="1">
          <mxGeometry x="-1" relative="1" as="geometry">
            <mxPoint x="-20" as="offset" />
          </mxGeometry>
        </mxCell>
        <mxCell id="zVyxqiEROXHcgOC5rcdq-28" value="1" style="edgeLabel;resizable=0;html=1;align=right;verticalAlign=top;" parent="zVyxqiEROXHcgOC5rcdq-26" connectable="0" vertex="1">
          <mxGeometry x="1" relative="1" as="geometry">
            <mxPoint x="10" as="offset" />
          </mxGeometry>
        </mxCell>
        <mxCell id="zVyxqiEROXHcgOC5rcdq-29" value="AgendaMedicação" style="swimlane;fontStyle=1;align=center;verticalAlign=top;childLayout=stackLayout;horizontal=1;startSize=26;horizontalStack=0;resizeParent=1;resizeParentMax=0;resizeLast=0;collapsible=1;marginBottom=0;whiteSpace=wrap;html=1;" parent="WIyWlLk6GJQsqaUBKTNV-1" vertex="1">
          <mxGeometry x="665" y="1310" width="160" height="86" as="geometry" />
        </mxCell>
        <mxCell id="zVyxqiEROXHcgOC5rcdq-30" value="&amp;nbsp;" style="text;strokeColor=none;fillColor=none;align=left;verticalAlign=top;spacingLeft=4;spacingRight=4;overflow=hidden;rotatable=0;points=[[0,0.5],[1,0.5]];portConstraint=eastwest;whiteSpace=wrap;html=1;" parent="zVyxqiEROXHcgOC5rcdq-29" vertex="1">
          <mxGeometry y="26" width="160" height="26" as="geometry" />
        </mxCell>
        <mxCell id="zVyxqiEROXHcgOC5rcdq-31" value="" style="line;strokeWidth=1;fillColor=none;align=left;verticalAlign=middle;spacingTop=-1;spacingLeft=3;spacingRight=3;rotatable=0;labelPosition=right;points=[];portConstraint=eastwest;strokeColor=inherit;" parent="zVyxqiEROXHcgOC5rcdq-29" vertex="1">
          <mxGeometry y="52" width="160" height="8" as="geometry" />
        </mxCell>
        <mxCell id="zVyxqiEROXHcgOC5rcdq-32" value="+ agendarMedicação(): void" style="text;strokeColor=none;fillColor=none;align=left;verticalAlign=top;spacingLeft=4;spacingRight=4;overflow=hidden;rotatable=0;points=[[0,0.5],[1,0.5]];portConstraint=eastwest;whiteSpace=wrap;html=1;" parent="zVyxqiEROXHcgOC5rcdq-29" vertex="1">
          <mxGeometry y="60" width="160" height="26" as="geometry" />
        </mxCell>
        <mxCell id="zVyxqiEROXHcgOC5rcdq-33" value="" style="rounded=0;orthogonalLoop=1;jettySize=auto;html=1;entryX=0.625;entryY=0.981;entryDx=0;entryDy=0;entryPerimeter=0;exitX=0.5;exitY=0;exitDx=0;exitDy=0;endArrow=block;endFill=0;" parent="WIyWlLk6GJQsqaUBKTNV-1" source="zVyxqiEROXHcgOC5rcdq-29" target="O6CtaRYET_vfFni-FHMC-20" edge="1">
          <mxGeometry relative="1" as="geometry">
            <mxPoint x="550" y="1380" as="sourcePoint" />
            <mxPoint x="638" y="1172" as="targetPoint" />
          </mxGeometry>
        </mxCell>
        <mxCell id="ZJPSMoCEX5RP2kxzUlpS-0" value="" style="endArrow=none;html=1;endSize=12;startArrow=diamondThin;startSize=14;startFill=1;edgeStyle=entityRelationEdgeStyle;rounded=0;endFill=0;" edge="1" parent="WIyWlLk6GJQsqaUBKTNV-1" source="ZJPSMoCEX5RP2kxzUlpS-4" target="zVyxqiEROXHcgOC5rcdq-11">
          <mxGeometry relative="1" as="geometry">
            <mxPoint x="445" y="1570" as="sourcePoint" />
            <mxPoint x="605" y="1570" as="targetPoint" />
          </mxGeometry>
        </mxCell>
        <mxCell id="ZJPSMoCEX5RP2kxzUlpS-1" value="1" style="edgeLabel;resizable=0;html=1;align=left;verticalAlign=top;" connectable="0" vertex="1" parent="ZJPSMoCEX5RP2kxzUlpS-0">
          <mxGeometry x="-1" relative="1" as="geometry" />
        </mxCell>
        <mxCell id="ZJPSMoCEX5RP2kxzUlpS-2" value="1..*" style="edgeLabel;resizable=0;html=1;align=right;verticalAlign=top;" connectable="0" vertex="1" parent="ZJPSMoCEX5RP2kxzUlpS-0">
          <mxGeometry x="1" relative="1" as="geometry" />
        </mxCell>
        <mxCell id="ZJPSMoCEX5RP2kxzUlpS-3" value="AgendaConsultaMedica" style="swimlane;fontStyle=1;align=center;verticalAlign=top;childLayout=stackLayout;horizontal=1;startSize=26;horizontalStack=0;resizeParent=1;resizeParentMax=0;resizeLast=0;collapsible=1;marginBottom=0;whiteSpace=wrap;html=1;" vertex="1" parent="WIyWlLk6GJQsqaUBKTNV-1">
          <mxGeometry x="295" y="1164" width="240" height="86" as="geometry" />
        </mxCell>
        <mxCell id="ZJPSMoCEX5RP2kxzUlpS-4" value="&amp;nbsp;" style="text;strokeColor=none;fillColor=none;align=left;verticalAlign=top;spacingLeft=4;spacingRight=4;overflow=hidden;rotatable=0;points=[[0,0.5],[1,0.5]];portConstraint=eastwest;whiteSpace=wrap;html=1;" vertex="1" parent="ZJPSMoCEX5RP2kxzUlpS-3">
          <mxGeometry y="26" width="240" height="26" as="geometry" />
        </mxCell>
        <mxCell id="ZJPSMoCEX5RP2kxzUlpS-5" value="" style="line;strokeWidth=1;fillColor=none;align=left;verticalAlign=middle;spacingTop=-1;spacingLeft=3;spacingRight=3;rotatable=0;labelPosition=right;points=[];portConstraint=eastwest;strokeColor=inherit;" vertex="1" parent="ZJPSMoCEX5RP2kxzUlpS-3">
          <mxGeometry y="52" width="240" height="8" as="geometry" />
        </mxCell>
        <mxCell id="ZJPSMoCEX5RP2kxzUlpS-6" value="+ agendarExameProcedimento(): void" style="text;strokeColor=none;fillColor=none;align=left;verticalAlign=top;spacingLeft=4;spacingRight=4;overflow=hidden;rotatable=0;points=[[0,0.5],[1,0.5]];portConstraint=eastwest;whiteSpace=wrap;html=1;" vertex="1" parent="ZJPSMoCEX5RP2kxzUlpS-3">
          <mxGeometry y="60" width="240" height="26" as="geometry" />
        </mxCell>
        <mxCell id="ZJPSMoCEX5RP2kxzUlpS-7" value="" style="rounded=0;orthogonalLoop=1;jettySize=auto;html=1;exitX=0.5;exitY=0;exitDx=0;exitDy=0;endArrow=block;endFill=0;entryX=0.206;entryY=1.019;entryDx=0;entryDy=0;entryPerimeter=0;" edge="1" parent="WIyWlLk6GJQsqaUBKTNV-1" source="ZJPSMoCEX5RP2kxzUlpS-3" target="O6CtaRYET_vfFni-FHMC-20">
          <mxGeometry relative="1" as="geometry">
            <mxPoint x="635" y="1400" as="sourcePoint" />
            <mxPoint x="575" y="1160" as="targetPoint" />
          </mxGeometry>
        </mxCell>
        <mxCell id="ZJPSMoCEX5RP2kxzUlpS-8" value="" style="endArrow=none;html=1;endSize=12;startArrow=diamondThin;startSize=14;startFill=1;edgeStyle=entityRelationEdgeStyle;rounded=0;endFill=0;exitX=1;exitY=0.5;exitDx=0;exitDy=0;entryX=0;entryY=0.25;entryDx=0;entryDy=0;" edge="1" parent="WIyWlLk6GJQsqaUBKTNV-1" source="ZJPSMoCEX5RP2kxzUlpS-6" target="zVyxqiEROXHcgOC5rcdq-29">
          <mxGeometry relative="1" as="geometry">
            <mxPoint x="485" y="1439" as="sourcePoint" />
            <mxPoint x="585" y="1430" as="targetPoint" />
          </mxGeometry>
        </mxCell>
        <mxCell id="ZJPSMoCEX5RP2kxzUlpS-9" value="1" style="edgeLabel;resizable=0;html=1;align=left;verticalAlign=top;" connectable="0" vertex="1" parent="ZJPSMoCEX5RP2kxzUlpS-8">
          <mxGeometry x="-1" relative="1" as="geometry" />
        </mxCell>
        <mxCell id="ZJPSMoCEX5RP2kxzUlpS-10" value="1..*" style="edgeLabel;resizable=0;html=1;align=right;verticalAlign=top;" connectable="0" vertex="1" parent="ZJPSMoCEX5RP2kxzUlpS-8">
          <mxGeometry x="1" relative="1" as="geometry" />
        </mxCell>
        <mxCell id="ZJPSMoCEX5RP2kxzUlpS-17" value="" style="endArrow=none;html=1;endSize=12;startArrow=none;startSize=14;startFill=0;edgeStyle=entityRelationEdgeStyle;rounded=0;strokeColor=default;endFill=0;entryX=1;entryY=0.071;entryDx=0;entryDy=0;entryPerimeter=0;exitX=-0.006;exitY=0.134;exitDx=0;exitDy=0;exitPerimeter=0;" edge="1" parent="WIyWlLk6GJQsqaUBKTNV-1" source="ZJPSMoCEX5RP2kxzUlpS-12" target="O6CtaRYET_vfFni-FHMC-17">
          <mxGeometry relative="1" as="geometry">
            <mxPoint x="655" y="880" as="sourcePoint" />
            <mxPoint x="415" y="1185" as="targetPoint" />
          </mxGeometry>
        </mxCell>
        <mxCell id="ZJPSMoCEX5RP2kxzUlpS-18" value="1..*" style="edgeLabel;resizable=0;html=1;align=left;verticalAlign=top;" connectable="0" vertex="1" parent="ZJPSMoCEX5RP2kxzUlpS-17">
          <mxGeometry x="-1" relative="1" as="geometry">
            <mxPoint x="-20" as="offset" />
          </mxGeometry>
        </mxCell>
        <mxCell id="ZJPSMoCEX5RP2kxzUlpS-19" value="1" style="edgeLabel;resizable=0;html=1;align=right;verticalAlign=top;" connectable="0" vertex="1" parent="ZJPSMoCEX5RP2kxzUlpS-17">
          <mxGeometry x="1" relative="1" as="geometry">
            <mxPoint x="10" as="offset" />
          </mxGeometry>
        </mxCell>
        <mxCell id="ZJPSMoCEX5RP2kxzUlpS-21" value="" style="group" vertex="1" connectable="0" parent="WIyWlLk6GJQsqaUBKTNV-1">
          <mxGeometry x="725" y="890" width="160" height="146" as="geometry" />
        </mxCell>
        <mxCell id="ZJPSMoCEX5RP2kxzUlpS-12" value="Documento" style="swimlane;fontStyle=1;align=center;verticalAlign=top;childLayout=stackLayout;horizontal=1;startSize=26;horizontalStack=0;resizeParent=1;resizeParentMax=0;resizeLast=0;collapsible=1;marginBottom=0;whiteSpace=wrap;html=1;" vertex="1" parent="ZJPSMoCEX5RP2kxzUlpS-21">
          <mxGeometry width="160" height="86" as="geometry" />
        </mxCell>
        <mxCell id="ZJPSMoCEX5RP2kxzUlpS-13" value="- arquivo: String" style="text;strokeColor=none;fillColor=none;align=left;verticalAlign=top;spacingLeft=4;spacingRight=4;overflow=hidden;rotatable=0;points=[[0,0.5],[1,0.5]];portConstraint=eastwest;whiteSpace=wrap;html=1;" vertex="1" parent="ZJPSMoCEX5RP2kxzUlpS-12">
          <mxGeometry y="26" width="160" height="26" as="geometry" />
        </mxCell>
        <mxCell id="ZJPSMoCEX5RP2kxzUlpS-15" value="" style="line;strokeWidth=1;fillColor=none;align=left;verticalAlign=middle;spacingTop=-1;spacingLeft=3;spacingRight=3;rotatable=0;labelPosition=right;points=[];portConstraint=eastwest;strokeColor=inherit;" vertex="1" parent="ZJPSMoCEX5RP2kxzUlpS-12">
          <mxGeometry y="52" width="160" height="8" as="geometry" />
        </mxCell>
        <mxCell id="ZJPSMoCEX5RP2kxzUlpS-16" value="+ uploadArquivo(): void" style="text;strokeColor=none;fillColor=none;align=left;verticalAlign=top;spacingLeft=4;spacingRight=4;overflow=hidden;rotatable=0;points=[[0,0.5],[1,0.5]];portConstraint=eastwest;whiteSpace=wrap;html=1;" vertex="1" parent="ZJPSMoCEX5RP2kxzUlpS-12">
          <mxGeometry y="60" width="160" height="26" as="geometry" />
        </mxCell>
        <mxCell id="ZJPSMoCEX5RP2kxzUlpS-20" value="&lt;&lt;Receitas, &#xa;Solicitações de Exames, &#xa;Laudos de exames &gt;&gt;" style="text;align=center;verticalAlign=top;spacingLeft=4;spacingRight=4;overflow=hidden;rotatable=0;points=[[0,0.5],[1,0.5]];portConstraint=eastwest;" vertex="1" parent="ZJPSMoCEX5RP2kxzUlpS-21">
          <mxGeometry y="86" width="160" height="60" as="geometry" />
        </mxCell>
        <mxCell id="ZJPSMoCEX5RP2kxzUlpS-24" value="" style="endArrow=none;html=1;endSize=12;startArrow=none;startSize=14;startFill=0;rounded=0;strokeColor=default;endFill=0;entryX=-0.011;entryY=0.063;entryDx=0;entryDy=0;exitX=1.013;exitY=0.125;exitDx=0;exitDy=0;entryPerimeter=0;exitPerimeter=0;edgeStyle=entityRelationEdgeStyle;" edge="1" parent="WIyWlLk6GJQsqaUBKTNV-1" source="zVyxqiEROXHcgOC5rcdq-19" target="zVyxqiEROXHcgOC5rcdq-0">
          <mxGeometry relative="1" as="geometry">
            <mxPoint x="505" y="945" as="sourcePoint" />
            <mxPoint x="405" y="931" as="targetPoint" />
          </mxGeometry>
        </mxCell>
        <mxCell id="ZJPSMoCEX5RP2kxzUlpS-25" value="0..*" style="edgeLabel;resizable=0;html=1;align=left;verticalAlign=top;" connectable="0" vertex="1" parent="ZJPSMoCEX5RP2kxzUlpS-24">
          <mxGeometry x="-1" relative="1" as="geometry">
            <mxPoint x="-2" y="-4" as="offset" />
          </mxGeometry>
        </mxCell>
        <mxCell id="ZJPSMoCEX5RP2kxzUlpS-26" value="1" style="edgeLabel;resizable=0;html=1;align=right;verticalAlign=top;" connectable="0" vertex="1" parent="ZJPSMoCEX5RP2kxzUlpS-24">
          <mxGeometry x="1" relative="1" as="geometry">
            <mxPoint x="2" as="offset" />
          </mxGeometry>
        </mxCell>
        <mxCell id="ZJPSMoCEX5RP2kxzUlpS-39" value="" style="endArrow=none;html=1;endSize=12;startArrow=diamondThin;startSize=14;startFill=1;edgeStyle=entityRelationEdgeStyle;rounded=0;endFill=0;entryX=0;entryY=0.5;entryDx=0;entryDy=0;" edge="1" parent="WIyWlLk6GJQsqaUBKTNV-1" source="ZJPSMoCEX5RP2kxzUlpS-36" target="zVyxqiEROXHcgOC5rcdq-32">
          <mxGeometry relative="1" as="geometry">
            <mxPoint x="525" y="1263" as="sourcePoint" />
            <mxPoint x="540" y="1541" as="targetPoint" />
          </mxGeometry>
        </mxCell>
        <mxCell id="ZJPSMoCEX5RP2kxzUlpS-40" value="1" style="edgeLabel;resizable=0;html=1;align=left;verticalAlign=top;" connectable="0" vertex="1" parent="ZJPSMoCEX5RP2kxzUlpS-39">
          <mxGeometry x="-1" relative="1" as="geometry" />
        </mxCell>
        <mxCell id="ZJPSMoCEX5RP2kxzUlpS-41" value="1..*" style="edgeLabel;resizable=0;html=1;align=right;verticalAlign=top;" connectable="0" vertex="1" parent="ZJPSMoCEX5RP2kxzUlpS-39">
          <mxGeometry x="1" relative="1" as="geometry" />
        </mxCell>
        <mxCell id="ZJPSMoCEX5RP2kxzUlpS-42" value="" style="endArrow=none;html=1;endSize=12;startArrow=none;startSize=14;startFill=0;rounded=0;strokeColor=default;endFill=0;entryX=0;entryY=0.25;entryDx=0;entryDy=0;exitX=0;exitY=0.5;exitDx=0;exitDy=0;edgeStyle=orthogonalEdgeStyle;" edge="1" parent="WIyWlLk6GJQsqaUBKTNV-1" source="ZJPSMoCEX5RP2kxzUlpS-38" target="O6CtaRYET_vfFni-FHMC-0">
          <mxGeometry relative="1" as="geometry">
            <mxPoint x="35" y="1455" as="sourcePoint" />
            <mxPoint x="111" y="1370" as="targetPoint" />
            <Array as="points">
              <mxPoint x="15" y="1237" />
              <mxPoint x="15" y="1404" />
            </Array>
          </mxGeometry>
        </mxCell>
        <mxCell id="ZJPSMoCEX5RP2kxzUlpS-43" value="0..*" style="edgeLabel;resizable=0;html=1;align=left;verticalAlign=top;" connectable="0" vertex="1" parent="ZJPSMoCEX5RP2kxzUlpS-42">
          <mxGeometry x="-1" relative="1" as="geometry">
            <mxPoint x="-20" y="-4" as="offset" />
          </mxGeometry>
        </mxCell>
        <mxCell id="ZJPSMoCEX5RP2kxzUlpS-44" value="1" style="edgeLabel;resizable=0;html=1;align=right;verticalAlign=top;" connectable="0" vertex="1" parent="ZJPSMoCEX5RP2kxzUlpS-42">
          <mxGeometry x="1" relative="1" as="geometry">
            <mxPoint y="-4" as="offset" />
          </mxGeometry>
        </mxCell>
        <mxCell id="ZJPSMoCEX5RP2kxzUlpS-49" value="Orçamento" style="swimlane;fontStyle=1;align=center;verticalAlign=top;childLayout=stackLayout;horizontal=1;startSize=26;horizontalStack=0;resizeParent=1;resizeParentMax=0;resizeLast=0;collapsible=1;marginBottom=0;whiteSpace=wrap;html=1;" vertex="1" parent="WIyWlLk6GJQsqaUBKTNV-1">
          <mxGeometry x="305" y="1360" width="240" height="138" as="geometry" />
        </mxCell>
        <mxCell id="ZJPSMoCEX5RP2kxzUlpS-50" value="- qtde: double" style="text;strokeColor=none;fillColor=none;align=left;verticalAlign=top;spacingLeft=4;spacingRight=4;overflow=hidden;rotatable=0;points=[[0,0.5],[1,0.5]];portConstraint=eastwest;whiteSpace=wrap;html=1;" vertex="1" parent="ZJPSMoCEX5RP2kxzUlpS-49">
          <mxGeometry y="26" width="240" height="26" as="geometry" />
        </mxCell>
        <mxCell id="ZJPSMoCEX5RP2kxzUlpS-51" value="" style="line;strokeWidth=1;fillColor=none;align=left;verticalAlign=middle;spacingTop=-1;spacingLeft=3;spacingRight=3;rotatable=0;labelPosition=right;points=[];portConstraint=eastwest;strokeColor=inherit;" vertex="1" parent="ZJPSMoCEX5RP2kxzUlpS-49">
          <mxGeometry y="52" width="240" height="8" as="geometry" />
        </mxCell>
        <mxCell id="ZJPSMoCEX5RP2kxzUlpS-52" value="+ cadastrarOrcamentoMedicamento(): void" style="text;strokeColor=none;fillColor=none;align=left;verticalAlign=top;spacingLeft=4;spacingRight=4;overflow=hidden;rotatable=0;points=[[0,0.5],[1,0.5]];portConstraint=eastwest;whiteSpace=wrap;html=1;" vertex="1" parent="ZJPSMoCEX5RP2kxzUlpS-49">
          <mxGeometry y="60" width="240" height="26" as="geometry" />
        </mxCell>
        <mxCell id="ZJPSMoCEX5RP2kxzUlpS-54" value="+ atualizarOrcamentoMedicamento(): void" style="text;strokeColor=none;fillColor=none;align=left;verticalAlign=top;spacingLeft=4;spacingRight=4;overflow=hidden;rotatable=0;points=[[0,0.5],[1,0.5]];portConstraint=eastwest;whiteSpace=wrap;html=1;" vertex="1" parent="ZJPSMoCEX5RP2kxzUlpS-49">
          <mxGeometry y="86" width="240" height="26" as="geometry" />
        </mxCell>
        <mxCell id="ZJPSMoCEX5RP2kxzUlpS-53" value="+ excluirOrcamentoMedicamento(): void" style="text;strokeColor=none;fillColor=none;align=left;verticalAlign=top;spacingLeft=4;spacingRight=4;overflow=hidden;rotatable=0;points=[[0,0.5],[1,0.5]];portConstraint=eastwest;whiteSpace=wrap;html=1;" vertex="1" parent="ZJPSMoCEX5RP2kxzUlpS-49">
          <mxGeometry y="112" width="240" height="26" as="geometry" />
        </mxCell>
        <mxCell id="ZJPSMoCEX5RP2kxzUlpS-55" value="" style="endArrow=none;html=1;endSize=12;startArrow=none;startSize=14;startFill=0;rounded=0;strokeColor=default;endFill=0;exitX=0;exitY=0.5;exitDx=0;exitDy=0;edgeStyle=entityRelationEdgeStyle;entryX=1;entryY=0.5;entryDx=0;entryDy=0;" edge="1" parent="WIyWlLk6GJQsqaUBKTNV-1" source="ZJPSMoCEX5RP2kxzUlpS-50" target="zVyxqiEROXHcgOC5rcdq-22">
          <mxGeometry relative="1" as="geometry">
            <mxPoint x="215" y="1245" as="sourcePoint" />
            <mxPoint x="295" y="1472" as="targetPoint" />
          </mxGeometry>
        </mxCell>
        <mxCell id="ZJPSMoCEX5RP2kxzUlpS-56" value="0..*" style="edgeLabel;resizable=0;html=1;align=left;verticalAlign=top;" connectable="0" vertex="1" parent="ZJPSMoCEX5RP2kxzUlpS-55">
          <mxGeometry x="-1" relative="1" as="geometry">
            <mxPoint x="-20" y="1" as="offset" />
          </mxGeometry>
        </mxCell>
        <mxCell id="ZJPSMoCEX5RP2kxzUlpS-57" value="1" style="edgeLabel;resizable=0;html=1;align=right;verticalAlign=top;" connectable="0" vertex="1" parent="ZJPSMoCEX5RP2kxzUlpS-55">
          <mxGeometry x="1" relative="1" as="geometry">
            <mxPoint x="10" y="-1" as="offset" />
          </mxGeometry>
        </mxCell>
        <mxCell id="ZJPSMoCEX5RP2kxzUlpS-68" value="" style="endArrow=none;html=1;endSize=12;startArrow=none;startSize=14;startFill=0;rounded=0;strokeColor=default;endFill=0;entryX=0;entryY=0.5;entryDx=0;entryDy=0;exitX=1;exitY=0.5;exitDx=0;exitDy=0;edgeStyle=entityRelationEdgeStyle;" edge="1" parent="WIyWlLk6GJQsqaUBKTNV-1" source="ZJPSMoCEX5RP2kxzUlpS-58" target="zVyxqiEROXHcgOC5rcdq-3">
          <mxGeometry relative="1" as="geometry">
            <mxPoint x="227" y="1003" as="sourcePoint" />
            <mxPoint x="273" y="912" as="targetPoint" />
          </mxGeometry>
        </mxCell>
        <mxCell id="ZJPSMoCEX5RP2kxzUlpS-69" value="0..*" style="edgeLabel;resizable=0;html=1;align=left;verticalAlign=top;" connectable="0" vertex="1" parent="ZJPSMoCEX5RP2kxzUlpS-68">
          <mxGeometry x="-1" relative="1" as="geometry">
            <mxPoint x="-2" y="-4" as="offset" />
          </mxGeometry>
        </mxCell>
        <mxCell id="ZJPSMoCEX5RP2kxzUlpS-70" value="1" style="edgeLabel;resizable=0;html=1;align=right;verticalAlign=top;" connectable="0" vertex="1" parent="ZJPSMoCEX5RP2kxzUlpS-68">
          <mxGeometry x="1" relative="1" as="geometry">
            <mxPoint x="2" as="offset" />
          </mxGeometry>
        </mxCell>
        <mxCell id="ZJPSMoCEX5RP2kxzUlpS-71" value="Diagrama de Classes - MedOrganizaer" style="text;html=1;strokeColor=none;fillColor=none;align=center;verticalAlign=middle;whiteSpace=wrap;rounded=0;fontSize=14;fontStyle=1" vertex="1" parent="WIyWlLk6GJQsqaUBKTNV-1">
          <mxGeometry x="190" y="840" width="760" height="30" as="geometry" />
        </mxCell>
        <mxCell id="ZJPSMoCEX5RP2kxzUlpS-72" value="Projeto MedOrganizer PMV-ADS-2023-E2-GRUPO5" style="text;html=1;strokeColor=none;fillColor=none;align=left;verticalAlign=middle;whiteSpace=wrap;rounded=0;" vertex="1" parent="WIyWlLk6GJQsqaUBKTNV-1">
          <mxGeometry x="30" y="1600" width="760" height="30" as="geometry" />
        </mxCell>
        <mxCell id="ZJPSMoCEX5RP2kxzUlpS-73" value="" style="endArrow=none;html=1;endSize=12;startArrow=none;startSize=14;startFill=0;rounded=0;strokeColor=default;endFill=0;entryX=1;entryY=0.5;entryDx=0;entryDy=0;exitX=0;exitY=0.5;exitDx=0;exitDy=0;edgeStyle=entityRelationEdgeStyle;" edge="1" parent="WIyWlLk6GJQsqaUBKTNV-1" source="O6CtaRYET_vfFni-FHMC-44" target="ZJPSMoCEX5RP2kxzUlpS-23">
          <mxGeometry relative="1" as="geometry">
            <mxPoint x="245" y="1399" as="sourcePoint" />
            <mxPoint x="275" y="1025" as="targetPoint" />
          </mxGeometry>
        </mxCell>
        <mxCell id="ZJPSMoCEX5RP2kxzUlpS-74" value="0..*" style="edgeLabel;resizable=0;html=1;align=left;verticalAlign=top;" connectable="0" vertex="1" parent="ZJPSMoCEX5RP2kxzUlpS-73">
          <mxGeometry x="-1" relative="1" as="geometry">
            <mxPoint x="-25" y="-4" as="offset" />
          </mxGeometry>
        </mxCell>
        <mxCell id="ZJPSMoCEX5RP2kxzUlpS-75" value="1" style="edgeLabel;resizable=0;html=1;align=right;verticalAlign=top;" connectable="0" vertex="1" parent="ZJPSMoCEX5RP2kxzUlpS-73">
          <mxGeometry x="1" relative="1" as="geometry">
            <mxPoint x="15" as="offset" />
          </mxGeometry>
        </mxCell>
        <mxCell id="ZJPSMoCEX5RP2kxzUlpS-76" value="" style="endArrow=none;html=1;endSize=12;startArrow=none;startSize=14;startFill=0;edgeStyle=entityRelationEdgeStyle;rounded=0;strokeColor=default;endFill=0;entryX=1;entryY=0.5;entryDx=0;entryDy=0;exitX=0;exitY=0.5;exitDx=0;exitDy=0;" edge="1" parent="WIyWlLk6GJQsqaUBKTNV-1" source="O6CtaRYET_vfFni-FHMC-16" target="zVyxqiEROXHcgOC5rcdq-7">
          <mxGeometry relative="1" as="geometry">
            <mxPoint x="515" y="959" as="sourcePoint" />
            <mxPoint x="445" y="921" as="targetPoint" />
          </mxGeometry>
        </mxCell>
        <mxCell id="ZJPSMoCEX5RP2kxzUlpS-77" value="0..*" style="edgeLabel;resizable=0;html=1;align=left;verticalAlign=top;" connectable="0" vertex="1" parent="ZJPSMoCEX5RP2kxzUlpS-76">
          <mxGeometry x="-1" relative="1" as="geometry">
            <mxPoint x="-20" as="offset" />
          </mxGeometry>
        </mxCell>
        <mxCell id="ZJPSMoCEX5RP2kxzUlpS-78" value="1" style="edgeLabel;resizable=0;html=1;align=right;verticalAlign=top;" connectable="0" vertex="1" parent="ZJPSMoCEX5RP2kxzUlpS-76">
          <mxGeometry x="1" relative="1" as="geometry">
            <mxPoint x="10" as="offset" />
          </mxGeometry>
        </mxCell>
      </root>
    </mxGraphModel>
  </diagram>
</mxfile>
